# xmcd
#
# Track frame offsets:
#	150
#	10478
#	90467
#	124727
#	128960
#	159515
#	275465
#
# Disc length: 4423 seconds
#
# Revision: 0
# Processed by: cddbd v1.5.2PL0 Copyright (c) Steve Scherf et al.
# Submitted via: audiograbber 1.83.01
#
DISCID=57114507
DTITLE=Grateful Dead - 93-09-29 Boston Garden, Boston MA
DYEAR=1900
DGENRE=
TTITLE0=Tuning
TTITLE1=Eyes Of The World
TTITLE2=Looks Like Rain
TTITLE3=Terrapin Station Tease
TTITLE4=Way To Go Home
TTITLE5=Terrapin Station
TTITLE6=Drums
EXTD=
EXTT0=
EXTT1=
EXTT2=
EXTT3=
EXTT4=
EXTT5=
EXTT6=
PLAYORDER=
